<svg width="256" height="256" viewBox="0 0 256 256" fill="none" xmlns="http://www.w3.org/2000/svg">
<rect x="35" y="18" width="185" height="220" rx="10" fill="white"/>
<path d="M72 84.5C72 82.0147 74.0147 80 76.5 80H180C182.485 80 184.5 82.0147 184.5 84.5C184.5 86.9853 182.485 89 180 89H76.5C74.0147 89 72 86.9853 72 84.5Z" fill="black" fill-opacity="0.25"/>
<path d="M72 107C72 104.515 74.0147 102.5 76.5 102.5H180C182.485 102.5 184.5 104.515 184.5 107C184.5 109.485 182.485 111.5 180 111.5H76.5C74.0147 111.5 72 109.485 72 107Z" fill="black" fill-opacity="0.25"/>
<path d="M72 129.5C72 127.015 74.0147 125 76.5 125H180C182.485 125 184.5 127.015 184.5 129.5C184.5 131.985 182.485 134 180 134H76.5C74.0147 134 72 131.985 72 129.5Z" fill="black" fill-opacity="0.25"/>
<path d="M72 152.5C72 150.015 74.0147 148 76.5 148H180C182.485 148 184.5 150.015 184.5 152.5C184.5 154.985 182.485 157 180 157H76.5C74.0147 157 72 154.985 72 152.5Z" fill="black" fill-opacity="0.25"/>
<path d="M72 175.5C72 173.015 74.0147 171 76.5 171H123.75C126.235 171 128.25 173.015 128.25 175.5C128.25 177.985 126.235 180 123.75 180H76.5C74.0147 180 72 177.985 72 175.5Z" fill="black" fill-opacity="0.25"/>
<path d="M72 82.5C72 80.0147 74.0147 78 76.5 78H180C182.485 78 184.5 80.0147 184.5 82.5C184.5 84.9853 182.485 87 180 87H76.5C74.0147 87 72 84.9853 72 82.5Z" fill="#404040"/>
<path d="M72 105C72 102.515 74.0147 100.5 76.5 100.5H180C182.485 100.5 184.5 102.515 184.5 105C184.5 107.485 182.485 109.5 180 109.5H76.5C74.0147 109.5 72 107.485 72 105Z" fill="#404040"/>
<path d="M72 127.5C72 125.015 74.0147 123 76.5 123H180C182.485 123 184.5 125.015 184.5 127.5C184.5 129.985 182.485 132 180 132H76.5C74.0147 132 72 129.985 72 127.5Z" fill="#404040"/>
<path d="M72 150.5C72 148.015 74.0147 146 76.5 146H180C182.485 146 184.5 148.015 184.5 150.5C184.5 152.985 182.485 155 180 155H76.5C74.0147 155 72 152.985 72 150.5Z" fill="#404040"/>
<path d="M72 173.5C72 171.015 74.0147 169 76.5 169H123.75C126.235 169 128.25 171.015 128.25 173.5C128.25 175.985 126.235 178 123.75 178H76.5C74.0147 178 72 175.985 72 173.5Z" fill="#404040"/>
</svg>
