<svg width="256" height="256" viewBox="0 0 256 256" fill="none" xmlns="http://www.w3.org/2000/svg">
<rect x="18" y="18" width="220" height="220" rx="54" fill="#008080"/>
<path d="M128 168.465C150.348 168.465 168.465 150.348 168.465 128C168.465 105.652 150.348 87.5349 128 87.5349C105.652 87.5349 87.5349 105.652 87.5349 128C87.5349 150.348 105.652 168.465 128 168.465Z" fill="white"/>
<path d="M55.7907 107.419C54.0465 114.047 53 121.023 53 128C53 134.977 54.0465 141.953 55.7907 148.233C56.8372 148.233 63.4651 146.14 63.814 139.163C64.1628 137.07 63.814 130.791 63.814 128C63.4651 124.86 64.1628 119.279 63.814 117.186C63.1163 109.86 56.8372 107.419 55.7907 107.419Z" fill="white"/>
<path d="M200.209 107.767C201.953 114.395 203 121.023 203 128.349C203 135.326 201.953 142.302 200.209 148.581C199.163 148.581 192.535 146.488 192.186 139.512C191.837 137.419 192.186 131.14 192.186 128.349C192.535 125.209 191.837 119.628 192.186 117.535C192.884 109.86 199.163 107.767 200.209 107.767Z" fill="white"/>
<path d="M148.233 55.7907C141.953 54.0465 134.977 53 128 53C121.023 53 114.047 54.0465 107.767 55.7907C107.767 56.8372 109.86 63.4651 116.837 63.814C118.93 64.1628 125.209 63.814 128 63.814C131.14 63.4651 136.721 64.1628 138.814 63.814C146.14 63.1163 148.233 56.8372 148.233 55.7907Z" fill="white"/>
<path d="M148.233 200.209C141.605 201.953 134.977 203 127.651 203C120.674 203 113.698 201.953 107.419 200.209C107.419 199.163 109.512 192.535 116.488 192.186C118.581 191.837 124.86 192.186 127.651 192.186C130.791 192.535 136.372 191.837 138.465 192.186C146.14 192.884 148.233 199.163 148.233 200.209Z" fill="white"/>
<path d="M91.3721 62.4186C85.4419 65.5581 79.8605 69.7442 74.9767 74.9767C70.093 79.8605 65.907 85.4419 62.7674 91.3721C63.4651 92.0698 69.7442 95.2093 74.9767 90.6744C76.7209 89.2791 80.907 85.093 83 82.6512C85.093 80.5581 89.2791 76.7209 90.6744 74.9767C95.2093 69.3953 92.0698 63.4651 91.3721 62.4186Z" fill="white"/>
<path d="M193.233 164.628C190.093 170.558 185.907 176.14 180.674 181.023C175.791 185.907 170.209 190.093 164.279 193.233C163.581 192.535 160.442 186.256 164.977 181.023C166.372 179.279 170.558 175.093 173 173C175.093 170.907 178.93 166.721 180.674 165.326C186.605 161.14 192.535 163.93 193.233 164.628Z" fill="white"/>
<path d="M164.628 62.4186C170.558 65.5581 176.14 69.7442 181.023 74.9767C185.907 79.8605 190.093 85.4419 193.233 91.3721C192.535 92.0698 186.256 95.2093 181.023 90.6744C179.279 89.2791 175.093 85.093 173 82.6512C170.907 80.5581 166.721 76.7209 165.326 74.9767C160.791 69.3953 163.93 63.4651 164.628 62.4186Z" fill="white"/>
<path d="M62.7674 164.628C65.907 170.558 70.093 176.14 75.3256 181.023C80.2093 185.907 85.7907 190.093 91.7209 193.233C92.4186 192.535 95.5581 186.256 91.0233 181.023C89.6279 179.279 85.4419 175.093 83 173C80.907 170.907 77.0698 166.721 75.3256 165.326C69.3953 160.791 63.4651 163.93 62.7674 164.628Z" fill="white"/>
</svg>
