<svg width="256" height="256" viewBox="0 0 256 256" fill="none" xmlns="http://www.w3.org/2000/svg">
<path fill-rule="evenodd" clip-rule="evenodd" d="M127.5 186C159.809 186 186 159.809 186 127.5C186 95.1913 159.809 69 127.5 69C95.1913 69 69 95.1913 69 127.5C69 159.809 95.1913 186 127.5 186ZM127.5 170.739C151.38 170.739 170.739 151.38 170.739 127.5C170.739 103.62 151.38 84.2609 127.5 84.2609C103.62 84.2609 84.2609 103.62 84.2609 127.5C84.2609 151.38 103.62 170.739 127.5 170.739Z" fill="#848482"/>
<path fill-rule="evenodd" clip-rule="evenodd" d="M153.618 19.119C150.753 18.4475 148.073 20.5756 147.036 23.33C144.14 31.0272 136.71 36.5035 128 36.5035C119.29 36.5035 111.86 31.0272 108.964 23.33C107.927 20.5756 105.247 18.4475 102.382 19.119C90.4481 21.916 79.2505 26.6242 69.1294 32.903C66.6291 34.4542 66.2377 37.8533 67.4513 40.5339C70.8418 48.023 69.4588 57.1456 63.3022 63.3022C57.1455 69.4588 48.023 70.8419 40.5338 67.4513C37.8533 66.2378 34.4542 66.6291 32.903 69.1295C26.6241 79.2506 21.916 90.4482 19.119 102.382C18.4475 105.247 20.5756 107.927 23.3299 108.964C31.0271 111.86 36.5035 119.29 36.5035 128C36.5035 136.71 31.0271 144.14 23.3299 147.036C20.5756 148.073 18.4475 150.753 19.119 153.618C21.9159 165.552 26.6241 176.749 32.903 186.871C34.4541 189.371 37.8533 189.762 40.5338 188.549C48.023 185.158 57.1455 186.541 63.3022 192.698C69.4588 198.854 70.8418 207.977 67.4512 215.466C66.2377 218.147 66.629 221.546 69.1294 223.097C79.2505 229.376 90.4481 234.084 102.382 236.881C105.247 237.553 107.927 235.424 108.964 232.67C111.86 224.973 119.29 219.497 128 219.497C136.71 219.497 144.14 224.973 147.036 232.67C148.073 235.424 150.753 237.553 153.618 236.881C165.552 234.084 176.749 229.376 186.87 223.097C189.371 221.546 189.762 218.147 188.549 215.466C185.158 207.977 186.541 198.854 192.698 192.698C198.854 186.541 207.977 185.158 215.466 188.549C218.147 189.762 221.546 189.371 223.097 186.871C229.376 176.749 234.084 165.552 236.881 153.618C237.552 150.753 235.424 148.073 232.67 147.036C224.973 144.14 219.496 136.71 219.496 128C219.496 119.29 224.973 111.86 232.67 108.964C235.424 107.927 237.552 105.247 236.881 102.382C234.084 90.4482 229.376 79.2506 223.097 69.1295C221.546 66.6291 218.147 66.2377 215.466 67.4513C207.977 70.8419 198.854 69.4588 192.698 63.3022C186.541 57.1456 185.158 48.023 188.549 40.5339C189.762 37.8533 189.371 34.4542 186.87 32.903C176.749 26.6242 165.552 21.916 153.618 19.119ZM127.5 185C159.256 185 185 159.256 185 127.5C185 95.7436 159.256 70 127.5 70C95.7436 70 70 95.7436 70 127.5C70 159.256 95.7436 185 127.5 185Z" fill="#C0C0C0"/>
</svg>
