<svg width="256" height="256" viewBox="0 0 256 256" fill="none" xmlns="http://www.w3.org/2000/svg">
<mask id="mask0_75_2" style="mask-type:alpha" maskUnits="userSpaceOnUse" x="18" y="18" width="220" height="220">
<path d="M18 48C18 31.4315 31.4315 18 48 18H208C224.569 18 238 31.4315 238 48V208C238 224.569 224.569 238 208 238H48C31.4315 238 18 224.569 18 208V48Z" fill="white"/>
</mask>
<g mask="url(#mask0_75_2)">
<rect x="18" y="18" width="220" height="220" fill="white"/>
<rect x="18" y="18" width="220" height="52" fill="#0085FF"/>
<path d="M100.364 106.909V200H89.0909V118.727H88.5455L65.8182 133.818V122.364L89.0909 106.909H100.364ZM158.591 201.273C152.591 201.273 147.242 200.242 142.545 198.182C137.879 196.121 134.167 193.258 131.409 189.591C128.682 185.894 127.197 181.606 126.955 176.727H138.409C138.652 179.727 139.682 182.318 141.5 184.5C143.318 186.652 145.697 188.318 148.636 189.5C151.576 190.682 154.833 191.273 158.409 191.273C162.409 191.273 165.955 190.576 169.045 189.182C172.136 187.788 174.561 185.848 176.318 183.364C178.076 180.879 178.955 178 178.955 174.727C178.955 171.303 178.106 168.288 176.409 165.682C174.712 163.045 172.227 160.985 168.955 159.5C165.682 158.015 161.682 157.273 156.955 157.273H149.5V147.273H156.955C160.652 147.273 163.894 146.606 166.682 145.273C169.5 143.939 171.697 142.061 173.273 139.636C174.879 137.212 175.682 134.364 175.682 131.091C175.682 127.939 174.985 125.197 173.591 122.864C172.197 120.53 170.227 118.712 167.682 117.409C165.167 116.106 162.197 115.455 158.773 115.455C155.561 115.455 152.53 116.045 149.682 117.227C146.864 118.379 144.561 120.061 142.773 122.273C140.985 124.455 140.015 127.091 139.864 130.182H128.955C129.136 125.303 130.606 121.03 133.364 117.364C136.121 113.667 139.727 110.788 144.182 108.727C148.667 106.667 153.591 105.636 158.955 105.636C164.712 105.636 169.652 106.803 173.773 109.136C177.894 111.439 181.061 114.485 183.273 118.273C185.485 122.061 186.591 126.152 186.591 130.545C186.591 135.788 185.212 140.258 182.455 143.955C179.727 147.652 176.015 150.212 171.318 151.636V152.364C177.197 153.333 181.788 155.833 185.091 159.864C188.394 163.864 190.045 168.818 190.045 174.727C190.045 179.788 188.667 184.333 185.909 188.364C183.182 192.364 179.455 195.515 174.727 197.818C170 200.121 164.621 201.273 158.591 201.273Z" fill="#404040"/>
</g>
</svg>
