<svg width="256" height="256" viewBox="0 0 256 256" fill="none" xmlns="http://www.w3.org/2000/svg">
<rect x="18" y="18" width="220" height="220" rx="30" fill="#1B1B1B"/>
<path d="M50.8125 92.2812V85.8438C48.2292 85.8021 45.8438 85.5729 43.6562 85.1562C41.4896 84.7188 39.6146 84.1562 38.0312 83.4688V76.8125C39.6354 77.5625 41.6146 78.2396 43.9688 78.8438C46.3229 79.4479 48.6042 79.7917 50.8125 79.875V68.1562C47.7917 67.1354 45.3333 66.0729 43.4375 64.9688C41.5625 63.8646 40.1875 62.5833 39.3125 61.125C38.4375 59.6458 38 57.875 38 55.8125C38 53.6875 38.5312 51.8646 39.5938 50.3438C40.6771 48.8021 42.1771 47.5833 44.0938 46.6875C46.0312 45.7917 48.2708 45.2604 50.8125 45.0938V40H54.875V45C57.1875 45.0625 59.3229 45.3229 61.2812 45.7812C63.2604 46.2188 65.1458 46.8333 66.9375 47.625L64.6562 53.4375C63.0938 52.8125 61.4688 52.3021 59.7812 51.9062C58.0938 51.5104 56.4583 51.2396 54.875 51.0938V62.5312C57.4167 63.3646 59.6771 64.2604 61.6562 65.2188C63.6562 66.1771 65.2188 67.3854 66.3438 68.8438C67.4896 70.2812 68.0625 72.1667 68.0625 74.5C68.0625 77.5625 66.9375 80.0938 64.6875 82.0938C62.4375 84.0729 59.1667 85.2604 54.875 85.6562V92.2812H50.8125ZM54.875 79.625C56.875 79.375 58.3646 78.8542 59.3438 78.0625C60.3229 77.25 60.8125 76.1979 60.8125 74.9062C60.8125 74.0312 60.6042 73.2917 60.1875 72.6875C59.7917 72.0833 59.1562 71.5417 58.2812 71.0625C57.4271 70.5833 56.2917 70.1146 54.875 69.6562V79.625ZM50.8125 61V51.2188C49.6042 51.3438 48.5833 51.5938 47.75 51.9688C46.9167 52.3438 46.2917 52.8333 45.875 53.4375C45.4583 54.0417 45.25 54.7604 45.25 55.5938C45.25 56.5104 45.4375 57.2917 45.8125 57.9375C46.1875 58.5833 46.7812 59.1458 47.5938 59.625C48.4271 60.1042 49.5 60.5625 50.8125 61Z" fill="black" fill-opacity="0.25"/>
<path d="M98.5625 98.4062H71.125V94.3125H98.5625V98.4062Z" fill="black" fill-opacity="0.25"/>
<path d="M50.8125 90.2812V83.8438C48.2292 83.8021 45.8438 83.5729 43.6562 83.1562C41.4896 82.7188 39.6146 82.1562 38.0312 81.4688V74.8125C39.6354 75.5625 41.6146 76.2396 43.9688 76.8438C46.3229 77.4479 48.6042 77.7917 50.8125 77.875V66.1562C47.7917 65.1354 45.3333 64.0729 43.4375 62.9688C41.5625 61.8646 40.1875 60.5833 39.3125 59.125C38.4375 57.6458 38 55.875 38 53.8125C38 51.6875 38.5312 49.8646 39.5938 48.3438C40.6771 46.8021 42.1771 45.5833 44.0938 44.6875C46.0312 43.7917 48.2708 43.2604 50.8125 43.0938V38H54.875V43C57.1875 43.0625 59.3229 43.3229 61.2812 43.7812C63.2604 44.2188 65.1458 44.8333 66.9375 45.625L64.6562 51.4375C63.0938 50.8125 61.4688 50.3021 59.7812 49.9062C58.0938 49.5104 56.4583 49.2396 54.875 49.0938V60.5312C57.4167 61.3646 59.6771 62.2604 61.6562 63.2188C63.6562 64.1771 65.2188 65.3854 66.3438 66.8438C67.4896 68.2812 68.0625 70.1667 68.0625 72.5C68.0625 75.5625 66.9375 78.0938 64.6875 80.0938C62.4375 82.0729 59.1667 83.2604 54.875 83.6562V90.2812H50.8125ZM54.875 77.625C56.875 77.375 58.3646 76.8542 59.3438 76.0625C60.3229 75.25 60.8125 74.1979 60.8125 72.9062C60.8125 72.0312 60.6042 71.2917 60.1875 70.6875C59.7917 70.0833 59.1562 69.5417 58.2812 69.0625C57.4271 68.5833 56.2917 68.1146 54.875 67.6562V77.625ZM50.8125 59V49.2188C49.6042 49.3438 48.5833 49.5938 47.75 49.9688C46.9167 50.3438 46.2917 50.8333 45.875 51.4375C45.4583 52.0417 45.25 52.7604 45.25 53.5938C45.25 54.5104 45.4375 55.2917 45.8125 55.9375C46.1875 56.5833 46.7812 57.1458 47.5938 57.625C48.4271 58.1042 49.5 58.5625 50.8125 59Z" fill="white"/>
<path d="M98.5625 96.4062H71.125V92.3125H98.5625V96.4062Z" fill="white"/>
</svg>
