<svg width="256" height="256" viewBox="0 0 256 256" fill="none" xmlns="http://www.w3.org/2000/svg">
<rect x="38" y="18" width="180" height="220" rx="22" fill="#A4A4A4"/>
<path fill-rule="evenodd" clip-rule="evenodd" d="M128 166.5C165.279 166.5 195.5 136.951 195.5 100.5C195.5 64.0492 165.279 34.5 128 34.5C90.7208 34.5 60.5 64.0492 60.5 100.5C60.5 136.951 90.7208 166.5 128 166.5ZM128 117C137.32 117 144.875 109.613 144.875 100.5C144.875 91.3873 137.32 84 128 84C118.68 84 111.125 91.3873 111.125 100.5C111.125 109.613 118.68 117 128 117Z" fill="#D8D8D8"/>
<rect x="60.5" y="184.1" width="135" height="40" rx="12" fill="#D8D8D8"/>
</svg>
