<svg width="256" height="256" viewBox="0 0 256 256" fill="none" xmlns="http://www.w3.org/2000/svg">
<path d="M18 54C18 45.1634 25.1634 38 34 38H99.974C103.554 38 107.031 39.2008 109.848 41.4103L126.652 54.5897C129.469 56.7992 132.946 58 136.526 58H222C230.837 58 238 65.1634 238 74V200C238 208.837 230.837 216 222 216H34C25.1634 216 18 208.837 18 200V54Z" fill="#1E90FF"/>
<rect x="18" y="76" width="220" height="140" rx="16" fill="#87CEEB"/>
<path d="M98.7188 129.969H96V165.969H98.5781L116 147.844L98.7188 129.969Z" fill="#1E90FF"/>
<path d="M124 126C117.422 126 112 131.422 112 138V158C112 164.578 117.422 170 124 170H148C154.578 170 160 164.578 160 158V138C160 131.422 154.578 126 148 126H124ZM124 134H148C150.281 134 152 135.719 152 138V158C152 160.281 150.281 162 148 162H124C121.719 162 120 160.281 120 158V138C120 135.719 121.719 134 124 134Z" fill="#1E90FF"/>
</svg>
