<svg width="256" height="256" viewBox="0 0 256 256" fill="none" xmlns="http://www.w3.org/2000/svg">
<path d="M18 54C18 45.1634 25.1634 38 34 38H99.974C103.554 38 107.031 39.2008 109.848 41.4103L126.652 54.5897C129.469 56.7992 132.946 58 136.526 58H222C230.837 58 238 65.1634 238 74V200C238 208.837 230.837 216 222 216H34C25.1634 216 18 208.837 18 200V54Z" fill="#1E90FF"/>
<rect x="18" y="76" width="220" height="140" rx="16" fill="#87CEEB"/>
<path d="M120 134C117.797 134 116 135.797 116 138C116 140.203 117.797 142 120 142C122.203 142 124 140.203 124 138C124 135.797 122.203 134 120 134ZM134 146L126 154L120 150L112 158V160C112 162 114 162 114 162H142C142 162 143.891 161.859 144 160V156L134 146Z" fill="#1E90FF"/>
<path d="M112 118C105.422 118 100 123.422 100 130V162C100 168.578 105.422 174 112 174H144C150.578 174 156 168.578 156 162V130C156 123.422 150.578 118 144 118H112ZM112 126H144C146.281 126 148 127.719 148 130V162C148 164.281 146.281 166 144 166H112C109.719 166 108 164.281 108 162V130C108 127.719 109.719 126 112 126Z" fill="#1E90FF"/>
</svg>
