<svg width="256" height="256" viewBox="0 0 256 256" fill="none" xmlns="http://www.w3.org/2000/svg">
<path d="M18 54C18 45.1634 25.1634 38 34 38H99.974C103.554 38 107.031 39.2008 109.848 41.4103L126.652 54.5897C129.469 56.7992 132.946 58 136.526 58H222C230.837 58 238 65.1634 238 74V200C238 208.837 230.837 216 222 216H34C25.1634 216 18 208.837 18 200V54Z" fill="#1E90FF"/>
<rect x="18" y="76" width="220" height="140" rx="16" fill="#87CEEB"/>
<path d="M128 118C121.422 118 116 123.422 116 130V147.359C114.172 146.5 112.141 146 110 146C102.312 146 96 152.312 96 160C96 167.688 102.312 174 110 174C117.656 174 123.969 167.719 124 160.062C124 160.047 124 160.016 124 160V130C124 127.75 125.75 126 128 126H144C146.25 126 148 127.75 148 130V147.359C146.172 146.5 144.141 146 142 146C134.312 146 128 152.312 128 160C128 167.688 134.312 174 142 174C149.688 174 156 167.688 156 160V130C156 123.422 150.578 118 144 118H128ZM110 154C113.359 154 116 156.641 116 160V160.062C115.969 163.391 113.344 166 110 166C106.641 166 104 163.359 104 160C104 156.641 106.641 154 110 154ZM142 154C145.359 154 148 156.641 148 160C148 163.359 145.359 166 142 166C138.641 166 136 163.359 136 160C136 156.641 138.641 154 142 154Z" fill="#1E90FF"/>
</svg>
