<svg width="256" height="256" viewBox="0 0 256 256" fill="none" xmlns="http://www.w3.org/2000/svg">
<path d="M18 54C18 45.1634 25.1634 38 34 38H99.974C103.554 38 107.031 39.2008 109.848 41.4103L126.652 54.5897C129.469 56.7992 132.946 58 136.526 58H222C230.837 58 238 65.1634 238 74V200C238 208.837 230.837 216 222 216H34C25.1634 216 18 208.837 18 200V54Z" fill="#1E90FF"/>
<rect x="18" y="76" width="220" height="140" rx="16" fill="#87CEEB"/>
<path d="M144 178C150.641 178 156 172.641 156 166V142C156 138.281 154.344 134.75 151.484 132.359L133.641 117.484C130.375 114.766 125.625 114.766 122.359 117.484L104.516 132.359C101.656 134.75 100 138.281 100 142V166C100 172.641 105.359 178 112 178H144ZM108 166V142C108 140.656 108.594 139.375 109.641 138.516L127.484 123.641C127.781 123.391 128.219 123.391 128.516 123.641L146.359 138.516C147.406 139.375 148 140.656 148 142V166C148 168.188 146.188 170 144 170H112C109.812 170 108 168.188 108 166Z" fill="#1E90FF"/>
<path d="M124 146H132C134.203 146 136 147.797 136 150V170C136 172.203 134.203 174 132 174H124C121.797 174 120 172.203 120 170V150C120 147.797 121.797 146 124 146Z" fill="#1E90FF"/>
</svg>
